<svg xmlns="http://www.w3.org/2000/svg" version="1.1" xmlns:xlink="http://www.w3.org/1999/xlink" xmlns:svgjs="http://svgjs.com/svgjs" width="79" height="117"><svg width="79" height="117" viewBox="0 0 79 117" fill="none" xmlns="http://www.w3.org/2000/svg">
<path fill-rule="evenodd" clip-rule="evenodd" d="M27.0828 51.3873C30.927 55.9055 35.1481 60.0992 39.7021 63.9246C44.2561 60.0992 48.4773 55.9055 52.3214 51.3873C58.0903 44.602 64.9409 34.4969 64.9409 24.8676C64.9621 18.2719 62.3032 11.9419 57.5567 7.28843C50.3386 0.173813 39.4782 -1.95598 30.0432 1.89288C20.6082 5.74174 14.4584 14.8106 14.4635 24.8676C14.4635 34.4969 21.314 44.602 27.0828 51.3873ZM30.253 18.5022C29.0785 19.6553 28.417 21.2323 28.4173 22.8782C28.4173 27.8436 33.2449 31.7909 37.2505 35.0661C38.1542 35.805 39.0161 36.5097 39.7712 37.1842C40.5004 36.5398 41.3281 35.8653 42.1964 35.1576C46.2238 31.8754 51.1252 27.8808 51.1252 22.8782C51.1255 21.2323 50.464 19.6553 49.2895 18.5022C48.115 17.3491 46.5262 16.7166 44.8805 16.7471C42.9307 16.7367 41.0702 17.5636 39.7712 19.0178C38.4723 17.5636 36.6118 16.7367 34.662 16.7471C33.0163 16.7166 31.4275 17.3491 30.253 18.5022Z" fill="#80CEB6"></path>
<path d="M0.923689 83.079L0.00997777 105.322C-0.23884 111.38 4.19628 116.504 9.9161 116.767C15.5179 117.025 20.2744 112.526 20.702 106.65L0.923689 83.079Z" fill="#80CEB6"></path>
<path d="M77.6547 83.0792L78.5684 105.323C78.8173 111.38 74.3821 116.504 68.6623 116.767C63.0606 117.025 58.3041 112.526 57.8764 106.65L77.6547 83.0792Z" fill="#80CEB6"></path>
<path d="M45.9403 109.96C50.0619 106.502 50.5995 100.357 47.1411 96.2355L19.6685 63.495C16.2101 59.3734 10.0653 58.8358 5.94367 62.2942C1.82208 65.7526 1.28449 71.8974 4.74291 76.019L32.2155 108.76C35.6739 112.881 41.8187 113.419 45.9403 109.96Z" fill="#80CEB6"></path>
<path d="M33.6216 109.821C29.5001 106.363 28.9625 100.218 32.4209 96.0962L59.8934 63.3556C63.3519 59.2341 69.4967 58.6964 73.6183 62.1549C77.7399 65.6133 78.2775 71.7581 74.819 75.8797L47.3465 108.62C43.888 112.742 37.7432 113.279 33.6216 109.821Z" fill="#80CEB6"></path>
</svg><style>@media (prefers-color-scheme: light) { :root { filter: none; } }
</style></svg>